<?xml version="1.0" encoding="UTF-8" standalone="no"?>
<!-- Created with matplotlib (http://matplotlib.org/) -->

<svg
   xmlns:dc="http://purl.org/dc/elements/1.1/"
   xmlns:cc="http://creativecommons.org/ns#"
   xmlns:rdf="http://www.w3.org/1999/02/22-rdf-syntax-ns#"
   xmlns:svg="http://www.w3.org/2000/svg"
   xmlns="http://www.w3.org/2000/svg"
   xmlns:xlink="http://www.w3.org/1999/xlink"
   xmlns:sodipodi="http://sodipodi.sourceforge.net/DTD/sodipodi-0.dtd"
   xmlns:inkscape="http://www.inkscape.org/namespaces/inkscape"
   height="331pt"
   version="1.1"
   viewBox="0 0 477 331"
   width="477pt"
   id="svg23998"
   inkscape:version="0.91 r13725"
   sodipodi:docname="proj-l2-resonance.svg">
  <metadata
     id="metadata24370">
    <rdf:RDF>
      <cc:Work
         rdf:about="">
        <dc:format>image/svg+xml</dc:format>
        <dc:type
           rdf:resource="http://purl.org/dc/dcmitype/StillImage" />
      </cc:Work>
    </rdf:RDF>
  </metadata>
  <sodipodi:namedview
     pagecolor="#ffffff"
     bordercolor="#666666"
     borderopacity="1"
     objecttolerance="10"
     gridtolerance="10"
     guidetolerance="10"
     inkscape:pageopacity="0"
     inkscape:pageshadow="2"
     inkscape:window-width="1914"
     inkscape:window-height="1058"
     id="namedview24368"
     showgrid="false"
     inkscape:zoom="1.1407855"
     inkscape:cx="92.299249"
     inkscape:cy="110.349"
     inkscape:window-x="0"
     inkscape:window-y="16"
     inkscape:window-maximized="0"
     inkscape:current-layer="svg23998" />
  <defs
     id="defs24000">
    <style
       type="text/css"
       id="style24002">
*{stroke-linecap:butt;stroke-linejoin:round;}
  </style>
    <clipPath
       id="paa458250a8">
      <rect
         height="225.36"
         width="295.73999"
         x="47.700001"
         y="28.17"
         id="rect11974" />
    </clipPath>
  </defs>
  <rect
     style="color:#000000;clip-rule:nonzero;display:inline;overflow:visible;visibility:visible;opacity:1;isolation:auto;mix-blend-mode:normal;color-interpolation:sRGB;color-interpolation-filters:linearRGB;solid-color:#000000;solid-opacity:1;fill:#ffffff;fill-opacity:1;fill-rule:nonzero;stroke:none;stroke-width:2.4000001;stroke-linecap:butt;stroke-linejoin:round;stroke-miterlimit:1;stroke-dasharray:none;stroke-dashoffset:0;stroke-opacity:1;marker:none;color-rendering:auto;image-rendering:auto;shape-rendering:auto;text-rendering:auto;enable-background:accumulate"
     id="rect23557"
     width="392.60284"
     height="313.23633"
     x="44.483479"
     y="17.793638" />
  <g
     id="line2d_1"
     style="stroke-linecap:square;stroke-linejoin:round;color:#000000;clip-rule:nonzero;display:inline;overflow:visible;visibility:visible;opacity:1;isolation:auto;mix-blend-mode:normal;color-interpolation:sRGB;color-interpolation-filters:linearRGB;solid-color:#000000;solid-opacity:1;fill:none;fill-opacity:1;fill-rule:nonzero;stroke:#0430a8;stroke-width:1.60000002;stroke-miterlimit:4;stroke-dasharray:none;stroke-dashoffset:0;stroke-opacity:1;filter-blend-mode:normal;filter-gaussianBlur-deviation:0;color-rendering:auto;image-rendering:auto;shape-rendering:auto;text-rendering:auto;enable-background:accumulate">
    <path
       clip-path="url(#pce6568548f)"
       d="m 102.667,-1 1.793,37.2575 1.866,33.8006 1.867,29.5418 1.866,25.8731 1.867,22.691 1.867,19.912 1.866,17.47 1.867,15.311 1.866,13.393 1.867,11.677 1.866,10.138 1.867,8.749 1.867,7.492 1.866,6.351 1.867,5.31 1.866,4.361 1.867,3.492 1.866,2.697 1.867,1.97 1.866,1.304 1.867,0.696 1.867,0.142 1.866,-0.362 1.867,-0.817 1.866,-1.226 1.867,-1.592 1.866,-1.915 1.867,-2.199 1.867,-2.445 3.733,-5.479 3.733,-6.042 7.466,-12.839 5.6,-9.541 3.733,-6.049 3.733,-5.684 3.733,-5.253 3.733,-4.781 3.733,-4.292 3.734,-3.802 3.733,-3.326 3.733,-2.873 3.733,-2.45 3.733,-2.063 3.733,-1.71 3.733,-1.396 3.734,-1.117 3.733,-0.871 3.733,-0.659 3.733,-0.474 5.6,-0.422 5.599,-0.145 5.6,0.07 7.466,0.336 9.333,0.681 13.066,1.208 42.931,4.134 18.666,1.504 18.665,1.289 20.533,1.198 22.398,1.087 24.266,0.97 0,0"
       style="fill:none;stroke:#0430a8;stroke-linecap:square;stroke-linejoin:round;color:#000000;clip-rule:nonzero;display:inline;overflow:visible;visibility:visible;isolation:auto;mix-blend-mode:normal;color-interpolation:sRGB;color-interpolation-filters:linearRGB;solid-color:#000000;solid-opacity:1;fill-opacity:1;fill-rule:nonzero;stroke-width:1.60000002;stroke-miterlimit:4;stroke-dasharray:none;stroke-dashoffset:0;stroke-opacity:1;filter-blend-mode:normal;filter-gaussianBlur-deviation:0;color-rendering:auto;image-rendering:auto;shape-rendering:auto;text-rendering:auto;enable-background:accumulate"
       id="path24013"
       inkscape:connector-curvature="0" />
  </g>
  <g
     id="line2d_2"
     style="stroke-linecap:butt;stroke-linejoin:round;stroke:#11c4ac;stroke-opacity:1;stroke-width:1.6;stroke-miterlimit:4;stroke-dasharray:none">
    <path
       clip-path="url(#pce6568548f)"
       d="m 59.6621,206.03 18.6657,-0.104 3.7331,-0.191 3.7332,-0.407 3.7331,-0.765 1.8666,-0.571 1.8665,-0.728 1.8666,-0.912 1.8666,-1.122 1.8665,-1.359 1.867,-1.619 1.866,-1.903 1.867,-2.208 1.866,-2.531 1.867,-2.865 1.866,-3.208 1.867,-3.554 1.867,-3.897 1.866,-4.23 1.867,-4.549 3.733,-9.962 3.733,-10.904 5.6,-17.409 5.599,-17.516 3.733,-11.07 3.734,-10.1561 1.866,-4.6369 1.867,-4.2996 1.866,-3.9362 1.867,-3.5521 1.866,-3.1528 1.867,-2.7434 1.867,-2.3295 1.866,-1.9159 1.867,-1.507 1.866,-1.1073 1.867,-0.7202 1.866,-0.3491 1.867,0.0036 1.867,0.3354 1.866,0.645 1.867,0.9311 1.866,1.1929 1.867,1.4304 1.866,1.6432 1.867,1.8322 3.733,4.1385 3.733,4.6259 5.6,7.5157 16.799,23.1902 5.6,7.158 5.599,6.672 3.734,4.157 3.733,3.921 3.733,3.686 3.733,3.456 3.733,3.234 3.733,3.021 3.733,2.82 3.733,2.63 5.6,3.612 5.6,3.249 5.6,2.921 5.599,2.627 5.6,2.366 5.6,2.133 5.599,1.925 7.467,2.283 7.466,1.999 7.466,1.756 7.466,1.547 9.333,1.686 9.333,1.458 11.199,1.493 11.2,1.245 13.066,1.206 16.799,1.309 14.932,0.962 13.066,0.626 11.2,0.421 0,0"
       style="fill:none;stroke:#11c4ac;stroke-linecap:square;stroke-linejoin:round;stroke-opacity:1;stroke-width:1.6;stroke-miterlimit:4;stroke-dasharray:none"
       id="path24016"
       inkscape:connector-curvature="0" />
  </g>
  <g
     id="patch_3"
     style="stroke-linecap:butt;stroke-linejoin:round">
    <path
       d="m 59.625,298.08 0,-264.96"
       style="fill:none;stroke:#000000;stroke-linecap:square;stroke-linejoin:miter"
       id="path24019"
       inkscape:connector-curvature="0" />
  </g>
  <g
     id="patch_4"
     style="stroke-linecap:butt;stroke-linejoin:round">
    <path
       d="m 429.3,298.08 0,-264.96"
       style="fill:none;stroke:#000000;stroke-linecap:square;stroke-linejoin:miter"
       id="path24022"
       inkscape:connector-curvature="0" />
  </g>
  <g
     id="patch_5"
     style="stroke-linecap:butt;stroke-linejoin:round">
    <path
       d="m 59.625,33.12 369.675,0"
       style="fill:none;stroke:#000000;stroke-linecap:square;stroke-linejoin:miter"
       id="path24025"
       inkscape:connector-curvature="0" />
  </g>
  <g
     id="patch_6"
     style="stroke-linecap:butt;stroke-linejoin:round">
    <path
       d="m 59.625,298.08 369.675,0"
       style="fill:none;stroke:#000000;stroke-linecap:square;stroke-linejoin:miter"
       id="path24028"
       inkscape:connector-curvature="0" />
  </g>
  <g
     id="matplotlib.axis_1"
     style="stroke-linecap:butt;stroke-linejoin:round">
    <g
       id="xtick_1"
       style="stroke-linecap:butt;stroke-linejoin:round">
      <g
         id="line2d_3"
         style="stroke-linecap:butt;stroke-linejoin:round">
        <defs
           id="defs24033">
          <path
             d="M 0,0 0,-4"
             id="mc7db9fdffb"
             style="stroke:#000000;stroke-width:0.5;stroke-linecap:butt;stroke-linejoin:round"
             inkscape:connector-curvature="0" />
        </defs>
        <g
           id="g24036"
           style="stroke-linecap:butt;stroke-linejoin:round">
          <use
             style="stroke:#000000;stroke-width:0.5;stroke-linecap:butt;stroke-linejoin:round"
             x="59.625"
             xlink:href="#mc7db9fdffb"
             y="298.07999"
             id="use24038"
             width="100%"
             height="100%" />
        </g>
      </g>
      <g
         id="line2d_4"
         style="stroke-linecap:butt;stroke-linejoin:round">
        <defs
           id="defs24041">
          <path
             d="M 0,0 0,4"
             id="m5a7d422ac3"
             style="stroke:#000000;stroke-width:0.5;stroke-linecap:butt;stroke-linejoin:round"
             inkscape:connector-curvature="0" />
        </defs>
        <g
           id="g24044"
           style="stroke-linecap:butt;stroke-linejoin:round">
          <use
             style="stroke:#000000;stroke-width:0.5;stroke-linecap:butt;stroke-linejoin:round"
             x="59.625"
             xlink:href="#m5a7d422ac3"
             y="33.119999"
             id="use24046"
             width="100%"
             height="100%" />
        </g>
      </g>
      <g
         id="text_1"
         style="stroke-linecap:butt;stroke-linejoin:round">
        <!-- 0 -->
        <defs
           id="defs24049">
          <path
             d="m 31.7812,66.4062 q -7.6093,0 -11.4531,-7.5 Q 16.5,51.4219 16.5,36.375 q 0,-14.9844 3.8281,-22.4844 3.8438,-7.49998 11.4531,-7.49998 7.6719,0 11.5,7.49998 3.8438,7.5 3.8438,22.4844 0,15.0469 -3.8438,22.5312 -3.8281,7.5 -11.5,7.5 m 0,7.8126 q 12.2657,0 18.7344,-9.7032 6.4688,-9.6875 6.4688,-28.1406 0,-18.4062 -6.4688,-28.10938 -6.4687,-9.6875 -18.7344,-9.6875 -12.25,0 -18.7187,9.6875 -6.46875,9.70318 -6.46875,28.10938 0,18.4531 6.46875,28.1406 6.4687,9.7032 18.7187,9.7032"
             id="BitstreamVeraSans-Roman-30"
             inkscape:connector-curvature="0"
             style="stroke-linecap:butt;stroke-linejoin:round" />
        </defs>
        <g
           transform="matrix(0.12,0,0,-0.12,56.601562,311.19812)"
           id="g24052"
           style="stroke-linecap:butt;stroke-linejoin:round">
          <use
             xlink:href="#BitstreamVeraSans-Roman-30"
             id="use24054"
             style="stroke-linecap:butt;stroke-linejoin:round"
             x="0"
             y="0"
             width="100%"
             height="100%" />
        </g>
      </g>
    </g>
    <g
       id="xtick_2"
       style="stroke-linecap:butt;stroke-linejoin:round">
      <g
         id="line2d_5"
         style="stroke-linecap:butt;stroke-linejoin:round">
        <g
           id="g24058"
           style="stroke-linecap:butt;stroke-linejoin:round">
          <use
             style="stroke:#000000;stroke-width:0.5;stroke-linecap:butt;stroke-linejoin:round"
             x="133.92177"
             xlink:href="#mc7db9fdffb"
             y="298.07999"
             id="use24060"
             width="100%"
             height="100%" />
        </g>
      </g>
      <g
         id="line2d_6"
         style="stroke-linecap:butt;stroke-linejoin:round">
        <g
           id="g24063"
           style="stroke-linecap:butt;stroke-linejoin:round">
          <use
             style="stroke:#000000;stroke-width:0.5;stroke-linecap:butt;stroke-linejoin:round"
             x="133.92177"
             xlink:href="#m5a7d422ac3"
             y="33.119999"
             id="use24065"
             width="100%"
             height="100%" />
        </g>
      </g>
      <g
         id="text_2"
         style="stroke-linecap:butt;stroke-linejoin:round">
        <!-- 2 -->
        <defs
           id="defs24068">
          <path
             d="m 19.1875,8.29688 34.4219,0 0,-8.29688 -46.28128,0 0,8.29688 Q 12.9375,14.1094 22.625,23.8906 q 9.7031,9.7969 12.1875,12.6406 4.7344,5.3126 6.6094,9 1.8906,3.6876 1.8906,7.25 0,5.8126 -4.0781,9.4688 -4.0782,3.6719 -10.625,3.6719 -4.6406,0 -9.7969,-1.6094 -5.1406,-1.6094 -11,-4.8906 l 0,9.9687 q 5.9531,2.3906 11.125,3.6094 5.1875,1.2188 9.4844,1.2188 11.3281,0 18.0625,-5.6719 6.7344,-5.6563 6.7344,-15.125 0,-4.5 -1.6876,-8.5313 Q 49.8594,40.875 45.4062,35.4062 44.1875,33.9844 37.6406,27.2188 31.1094,20.4531 19.1875,8.29688"
             id="BitstreamVeraSans-Roman-32"
             inkscape:connector-curvature="0"
             style="stroke-linecap:butt;stroke-linejoin:round" />
        </defs>
        <g
           transform="matrix(0.12,0,0,-0.12,131.14489,311.19812)"
           id="g24071"
           style="stroke-linecap:butt;stroke-linejoin:round">
          <use
             xlink:href="#BitstreamVeraSans-Roman-32"
             id="use24073"
             style="stroke-linecap:butt;stroke-linejoin:round"
             x="0"
             y="0"
             width="100%"
             height="100%" />
        </g>
      </g>
    </g>
    <g
       id="xtick_3"
       style="stroke-linecap:butt;stroke-linejoin:round">
      <g
         id="line2d_7"
         style="stroke-linecap:butt;stroke-linejoin:round">
        <g
           id="g24077"
           style="stroke-linecap:butt;stroke-linejoin:round">
          <use
             style="stroke:#000000;stroke-width:0.5;stroke-linecap:butt;stroke-linejoin:round"
             x="208.21852"
             xlink:href="#mc7db9fdffb"
             y="298.07999"
             id="use24079"
             width="100%"
             height="100%" />
        </g>
      </g>
      <g
         id="line2d_8"
         style="stroke-linecap:butt;stroke-linejoin:round">
        <g
           id="g24082"
           style="stroke-linecap:butt;stroke-linejoin:round">
          <use
             style="stroke:#000000;stroke-width:0.5;stroke-linecap:butt;stroke-linejoin:round"
             x="208.21852"
             xlink:href="#m5a7d422ac3"
             y="33.119999"
             id="use24084"
             width="100%"
             height="100%" />
        </g>
      </g>
      <g
         id="text_3"
         style="stroke-linecap:butt;stroke-linejoin:round">
        <!-- 4 -->
        <defs
           id="defs24087">
          <path
             d="m 37.7969,64.3125 -24.9063,-38.9219 24.9063,0 z m -2.5938,8.5937 12.4063,0 0,-47.5156 10.4062,0 0,-8.2031 -10.4062,0 0,-17.1875 -9.8125,0 0,17.1875 -32.90628,0 0,9.5156 z"
             id="BitstreamVeraSans-Roman-34"
             inkscape:connector-curvature="0"
             style="stroke-linecap:butt;stroke-linejoin:round" />
        </defs>
        <g
           transform="matrix(0.12,0,0,-0.12,205.03102,311.19812)"
           id="g24090"
           style="stroke-linecap:butt;stroke-linejoin:round">
          <use
             xlink:href="#BitstreamVeraSans-Roman-34"
             id="use24092"
             style="stroke-linecap:butt;stroke-linejoin:round"
             x="0"
             y="0"
             width="100%"
             height="100%" />
        </g>
      </g>
    </g>
    <g
       id="xtick_4"
       style="stroke-linecap:butt;stroke-linejoin:round">
      <g
         id="line2d_9"
         style="stroke-linecap:butt;stroke-linejoin:round">
        <g
           id="g24096"
           style="stroke-linecap:butt;stroke-linejoin:round">
          <use
             style="stroke:#000000;stroke-width:0.5;stroke-linecap:butt;stroke-linejoin:round"
             x="282.51529"
             xlink:href="#mc7db9fdffb"
             y="298.07999"
             id="use24098"
             width="100%"
             height="100%" />
        </g>
      </g>
      <g
         id="line2d_10"
         style="stroke-linecap:butt;stroke-linejoin:round">
        <g
           id="g24101"
           style="stroke-linecap:butt;stroke-linejoin:round">
          <use
             style="stroke:#000000;stroke-width:0.5;stroke-linecap:butt;stroke-linejoin:round"
             x="282.51529"
             xlink:href="#m5a7d422ac3"
             y="33.119999"
             id="use24103"
             width="100%"
             height="100%" />
        </g>
      </g>
      <g
         id="text_4"
         style="stroke-linecap:butt;stroke-linejoin:round">
        <!-- 6 -->
        <defs
           id="defs24106">
          <path
             d="m 33.0156,40.375 q -6.6406,0 -10.5312,-4.5469 -3.875,-4.5312 -3.875,-12.4375 0,-7.8594 3.875,-12.4375 3.8906,-4.56248 10.5312,-4.56248 6.6406,0 10.5156,4.56248 3.875,4.5781 3.875,12.4375 0,7.9063 -3.875,12.4375 -3.875,4.5469 -10.5156,4.5469 m 19.5782,30.9219 0,-8.9844 q -3.7188,1.75 -7.5,2.6719 -3.7813,0.9375 -7.5,0.9375 -9.7657,0 -14.9219,-6.5938 -5.1407,-6.5937 -5.875,-19.9219 2.875,4.25 7.2187,6.5157 4.3594,2.2656 9.5782,2.2656 10.9843,0 17.3593,-6.6719 6.375,-6.6562 6.375,-18.125 0,-11.2344 -6.6406,-18.03122 -6.6406,-6.78126 -17.6719,-6.78126 -12.6562,0 -19.3437,9.6875 -6.68752,9.70318 -6.68752,28.10938 0,17.2812 8.20312,27.5625 8.2031,10.2813 22.0156,10.2813 3.7188,0 7.5,-0.7344 3.7813,-0.7344 7.8907,-2.1875"
             id="BitstreamVeraSans-Roman-36"
             inkscape:connector-curvature="0"
             style="stroke-linecap:butt;stroke-linejoin:round" />
        </defs>
        <g
           transform="matrix(0.12,0,0,-0.12,279.49466,311.19812)"
           id="g24109"
           style="stroke-linecap:butt;stroke-linejoin:round">
          <use
             xlink:href="#BitstreamVeraSans-Roman-36"
             id="use24111"
             style="stroke-linecap:butt;stroke-linejoin:round"
             x="0"
             y="0"
             width="100%"
             height="100%" />
        </g>
      </g>
    </g>
    <g
       id="xtick_5"
       style="stroke-linecap:butt;stroke-linejoin:round">
      <g
         id="line2d_11"
         style="stroke-linecap:butt;stroke-linejoin:round">
        <g
           id="g24115"
           style="stroke-linecap:butt;stroke-linejoin:round">
          <use
             style="stroke:#000000;stroke-width:0.5;stroke-linecap:butt;stroke-linejoin:round"
             x="356.81204"
             xlink:href="#mc7db9fdffb"
             y="298.07999"
             id="use24117"
             width="100%"
             height="100%" />
        </g>
      </g>
      <g
         id="line2d_12"
         style="stroke-linecap:butt;stroke-linejoin:round">
        <g
           id="g24120"
           style="stroke-linecap:butt;stroke-linejoin:round">
          <use
             style="stroke:#000000;stroke-width:0.5;stroke-linecap:butt;stroke-linejoin:round"
             x="356.81204"
             xlink:href="#m5a7d422ac3"
             y="33.119999"
             id="use24122"
             width="100%"
             height="100%" />
        </g>
      </g>
      <g
         id="text_5"
         style="stroke-linecap:butt;stroke-linejoin:round">
        <!-- 8 -->
        <defs
           id="defs24125">
          <path
             d="m 31.7812,34.625 q -7.0312,0 -11.0624,-3.7656 -4.0157,-3.7656 -4.0157,-10.3438 0,-6.5937 4.0157,-10.3594 4.0312,-3.76558 11.0624,-3.76558 7.0313,0 11.0782,3.78128 4.0625,3.7969 4.0625,10.3437 0,6.5782 -4.0313,10.3438 -4.0156,3.7656 -11.1094,3.7656 m -9.8593,4.1875 Q 15.5781,40.375 12.0312,44.7188 8.5,49.0781 8.5,55.3281 q 0,8.7344 6.2188,13.8125 6.2343,5.0782 17.0624,5.0782 10.8907,0 17.0938,-5.0782 6.2031,-5.0781 6.2031,-13.8125 0,-6.25 -3.5469,-10.6093 Q 48,40.375 41.7031,38.8125 q 7.125,-1.6563 11.0938,-6.5 3.9843,-4.8281 3.9843,-11.7969 0,-10.60935 -6.4687,-16.28122 -6.4687,-5.65626 -18.5313,-5.65626 -12.0468,0 -18.5312,5.65626 -6.46875,5.67187 -6.46875,16.28122 0,6.9688 3.99995,11.7969 4.0157,4.8437 11.1407,6.5 m -3.6094,15.5781 q 0,-5.6562 3.5313,-8.8281 3.5468,-3.1719 9.9374,-3.1719 6.3594,0 9.9376,3.1719 3.5937,3.1719 3.5937,8.8281 0,5.6719 -3.5937,8.8438 -3.5782,3.1718 -9.9376,3.1718 -6.3906,0 -9.9374,-3.1718 -3.5313,-3.1719 -3.5313,-8.8438"
             id="BitstreamVeraSans-Roman-38"
             inkscape:connector-curvature="0"
             style="stroke-linecap:butt;stroke-linejoin:round" />
        </defs>
        <g
           transform="matrix(0.12,0,0,-0.12,353.81205,311.19812)"
           id="g24128"
           style="stroke-linecap:butt;stroke-linejoin:round">
          <use
             xlink:href="#BitstreamVeraSans-Roman-38"
             id="use24130"
             style="stroke-linecap:butt;stroke-linejoin:round"
             x="0"
             y="0"
             width="100%"
             height="100%" />
        </g>
      </g>
    </g>
  </g>
  <g
     id="line2d_15"
     style="stroke-linecap:butt;stroke-linejoin:round">
    <g
       id="g24168"
       style="stroke-linecap:butt;stroke-linejoin:round">
      <path
         inkscape:connector-curvature="0"
         style="stroke:#000000;stroke-width:0.5;stroke-linecap:butt;stroke-linejoin:round"
         id="use24170"
         d="m 59.625,206.02971 4,0" />
    </g>
  </g>
  <g
     id="line2d_16"
     style="stroke-linecap:butt;stroke-linejoin:round">
    <g
       id="g24173"
       style="stroke-linecap:butt;stroke-linejoin:round">
      <path
         inkscape:connector-curvature="0"
         style="stroke:#000000;stroke-width:0.5;stroke-linecap:butt;stroke-linejoin:round"
         id="use24175"
         d="m 429.29999,206.02971 -4,0" />
    </g>
  </g>
  <g
     id="text_7"
     style="stroke-linecap:butt;stroke-linejoin:round">
    <!-- 0.0 -->
    <use
       height="100%"
       width="100%"
       y="0"
       style="stroke-linecap:butt;stroke-linejoin:round"
       id="use24184"
       xlink:href="#BitstreamVeraSans-Roman-30"
       x="95.410156"
       transform="matrix(0.12,0,0,-0.12,38.129375,209.34096)" />
  </g>
  <defs
     id="defs24363">
    <clipPath
       id="pce6568548f">
      <rect
         height="264.96"
         width="369.675"
         x="59.625"
         y="33.12"
         id="rect24366" />
    </clipPath>
  </defs>
  <text
     xml:space="preserve"
     style="font-style:normal;font-variant:normal;font-weight:normal;font-stretch:normal;font-size:19.20000076px;line-height:125%;font-family:Roboto;-inkscape-font-specification:Roboto;letter-spacing:0px;word-spacing:0px;fill:#0430a8;fill-opacity:1;stroke:none;stroke-width:1px;stroke-linecap:butt;stroke-linejoin:miter;stroke-opacity:1"
     x="193.11121"
     y="237.32372"
     id="text10807-9-6"
     sodipodi:linespacing="125%"><tspan
       sodipodi:role="line"
       id="tspan10809-9-7"
       style="font-style:italic;fill:#0430a8;fill-opacity:1;stroke-linecap:butt;stroke-linejoin:round"
       x="193.11121"
       y="237.32372"><tspan
   style="font-style:normal;fill:#0430a8;fill-opacity:1;stroke-linecap:butt;stroke-linejoin:round"
   id="tspan10877-7"><tspan
   style="font-style:italic;fill:#0430a8;fill-opacity:1;stroke-linecap:butt;stroke-linejoin:round"
   id="tspan10917">V</tspan><tspan
   style="font-size:9.98400021px;baseline-shift:sub;fill:#0430a8;fill-opacity:1;stroke-linecap:butt;stroke-linejoin:round"
   id="tspan10919">eff</tspan>(</tspan>R<tspan
   style="font-style:normal;fill:#0430a8;fill-opacity:1;stroke-linecap:butt;stroke-linejoin:round"
   id="tspan10875-5">)</tspan></tspan></text>
  <text
     xml:space="preserve"
     style="font-style:normal;font-variant:normal;font-weight:normal;font-stretch:normal;font-size:15.04214191px;line-height:125%;font-family:Roboto;-inkscape-font-specification:Roboto;letter-spacing:0px;word-spacing:0px;fill:#0faf99;fill-opacity:1;stroke:none;stroke-width:1px;stroke-linecap:butt;stroke-linejoin:miter;stroke-opacity:1;"
     x="178.97289"
     y="60.465504"
     id="text10807-9"
     sodipodi:linespacing="125%"
     transform="scale(1.0058401,0.9941938)"><tspan
       sodipodi:role="line"
       id="tspan10809-9"
       style="font-style:italic;fill:#0faf99;fill-opacity:1;stroke-linecap:butt;stroke-linejoin:round;"
       x="178.97289"
       y="60.465504"><tspan
   style="font-style:normal;fill:#0faf99;fill-opacity:1;stroke-linecap:butt;stroke-linejoin:round;"
   id="tspan15888">|</tspan>u<tspan
   style="font-style:normal;fill:#0faf99;fill-opacity:1;stroke-linecap:butt;stroke-linejoin:round;"
   id="tspan10877">(</tspan>R<tspan
   style="font-style:normal;fill:#0faf99;fill-opacity:1;stroke-linecap:butt;stroke-linejoin:round;"
   id="tspan10875">)|<tspan
   style="font-size:7.82191372px;baseline-shift:super;fill:#0faf99;fill-opacity:1;stroke-linecap:butt;stroke-linejoin:round;"
   id="tspan15890">2</tspan> for <tspan
   style="font-style:italic;fill:#0faf99;fill-opacity:1;stroke-linecap:butt;stroke-linejoin:round;"
   id="tspan10915">E</tspan> = (1.346 − 0.224<tspan
   style="font-style:italic;fill:#0faf99;fill-opacity:1;stroke-linecap:butt;stroke-linejoin:round;"
   id="tspan25467">i</tspan>/2)MeV</tspan></tspan></text>
  <text
     xml:space="preserve"
     style="font-style:normal;font-variant:normal;font-weight:normal;font-stretch:normal;font-size:19.20000076px;line-height:125%;font-family:Roboto;-inkscape-font-specification:Roboto;letter-spacing:0px;word-spacing:0px;fill:#000000;fill-opacity:1;stroke:none;stroke-width:1px;stroke-linecap:butt;stroke-linejoin:miter;stroke-opacity:1"
     x="222.28876"
     y="323.57407"
     id="text10807"
     sodipodi:linespacing="125%"><tspan
       sodipodi:role="line"
       id="tspan10809"
       style="font-style:italic;stroke-linecap:butt;stroke-linejoin:round"
       x="222.28876"
       y="323.57407">R<tspan
   style="font-style:normal;stroke-linecap:butt;stroke-linejoin:round"
   id="tspan13417"> /fm</tspan></tspan></text>
</svg>
